<svg width="62" height="60" viewBox="0 0 62 60" fill="none" xmlns="http://www.w3.org/2000/svg">
<path d="M1.8798 33.9887C2.69964 31.8503 5.4348 31.6576 7.23458 33.0738C10.3429 35.5196 13.94 37.2957 17.7991 38.2725C18.0914 38.3465 18.1572 38.8251 17.9432 39.0375C17.7107 39.2689 17.5269 39.5444 17.4022 39.8478C17.1446 40.4897 17.1446 41.2064 17.4022 41.8483C17.5249 42.1549 17.7089 42.4333 17.9432 42.6661C18.1759 42.8967 18.451 43.0802 18.7534 43.2062C19.0709 43.3354 19.4109 43.4004 19.7537 43.3971H56.4031C59.1645 43.3971 61.4031 45.6357 61.4031 48.3971V54.9998C61.4031 57.7612 59.1645 59.9998 56.4031 59.9998H19.7554C17.1901 60.0113 14.6493 59.5008 12.2876 58.4994C7.69192 56.5667 4.03645 52.9103 2.10486 48.3142C1.29115 46.3909 0.807262 44.3442 0.673645 42.2601C0.666893 42.221 0.662724 42.1814 0.66114 42.1417C0.494846 39.7035 0.796677 37.2561 1.55054 34.9315C1.64974 34.6148 1.76144 34.2988 1.8798 33.9887Z" fill="url(#paint0_linear_1262_3836)"/>
<path d="M19.7549 0.000105722L56.4026 0.000105722C59.164 0.000105722 61.4026 2.23868 61.4026 5.00011V11.5695C61.4026 14.3309 59.164 16.5695 56.4026 16.5695L19.7549 16.5695C19.4267 16.5666 19.1014 16.6316 18.7996 16.7604C18.48 16.8996 18.1895 17.0976 17.9427 17.3438C17.7102 17.5752 17.5264 17.8507 17.4017 18.1541C17.1441 18.7961 17.1441 19.5127 17.4017 20.1546C17.5244 20.4613 17.7084 20.7396 17.9427 20.9723C18.1779 21.2048 18.4551 21.3903 18.7596 21.5191C19.0756 21.6469 19.4141 21.7096 19.7549 21.7033L56.4026 21.7033C59.164 21.7033 61.4026 23.9419 61.4026 26.7033V33.3127C61.4026 36.0742 59.164 38.3127 56.4026 38.3127H19.7549C19.0873 38.3001 18.4033 38.4333 17.7563 38.2684C12.482 36.9244 7.69905 34.0867 3.98762 30.0865C3.97034 30.0679 3.96864 30.0394 3.98336 30.0187C3.99631 30.0005 3.99569 29.9769 3.983 29.9585C3.63487 29.4541 3.3123 28.9363 3.01543 28.4051C3.00343 28.3861 2.99259 28.3664 2.98292 28.3459C2.96959 28.3193 2.94958 28.2868 2.92957 28.2467C2.52763 27.5257 2.17746 26.7769 1.8818 26.0061C0.0904045 21.371 0.175087 16.2203 2.11794 11.6466C4.06078 7.07286 7.709 3.43589 12.2887 1.50716C14.6497 0.504249 17.1898 -0.00846575 19.7549 0.000105722Z" fill="url(#paint1_linear_1262_3836)"/>
<g style="mix-blend-mode:multiply" opacity="0.25">
<g style="mix-blend-mode:multiply" opacity="0.25">
<path d="M0.6735 42.2605C0.713512 42.5439 0.811874 43.1174 0.990257 43.9218C1.34727 45.5239 1.90075 47.0758 2.63819 48.5422C3.12374 49.5101 3.68563 50.4377 4.31864 51.3162C5.02015 52.29 5.81012 53.1968 6.67843 54.0253C7.60518 54.9093 8.61861 55.6976 9.7034 56.3784C10.8198 57.0888 12.0084 57.6787 13.2493 58.138C14.4782 58.6114 15.7558 58.9469 17.0587 59.1383C18.3406 59.3137 19.6334 59.3972 20.9272 59.3884C23.4979 59.4342 25.9035 59.5067 27.9666 59.5993C32.086 59.766 34.8342 59.9944 34.8342 59.9944H19.7544C17.1891 60.0058 14.6484 59.4953 12.2866 58.494C7.69236 56.5625 4.0374 52.9083 2.10472 48.3146C1.29092 46.3913 0.807121 44.3446 0.6735 42.2605Z" fill="black"/>
</g>
</g>
<defs>
<linearGradient id="paint0_linear_1262_3836" x1="-597.156" y1="-326.265" x2="-597.156" y2="-301.105" gradientUnits="userSpaceOnUse">
<stop stop-color="white"/>
<stop offset="0.0001" stop-color="white"/>
</linearGradient>
<linearGradient id="paint1_linear_1262_3836" x1="-568.726" y1="-285.543" x2="-628.134" y2="-285.543" gradientUnits="userSpaceOnUse">
<stop stop-color="#FF4133"/>
<stop offset="0.0001" stop-color="#F74F4F"/>
</linearGradient>
</defs>
</svg>
