<svg width="181" height="33" viewBox="0 0 181 33" fill="none" xmlns="http://www.w3.org/2000/svg">
<g clip-path="url(#clip0_1369_7937)">
<path d="M61.3693 0C58.7387 0 56.1858 0.935 54.1768 2.629V0H50.2698V29.073H54.1768V19.371C58.8386 23.309 65.8535 22.759 69.8271 18.139C73.8008 13.519 73.2458 6.567 68.584 2.629C66.5639 0.924 64.011 0 61.3693 0ZM61.3693 3.872C65.3429 3.872 68.5618 7.062 68.5618 11C68.5618 14.938 65.3429 18.128 61.3693 18.128C57.3957 18.128 54.1768 14.938 54.1768 11C54.1768 7.073 57.3957 3.883 61.3693 3.872Z" fill="#3CCBDA"/>
<path d="M42.4446 2.629C37.7827 -1.309 30.7678 -0.759 26.7942 3.861C22.8206 8.481 23.3756 15.433 28.0374 19.371C32.1886 22.88 38.2933 22.88 42.4335 19.371V22H46.3405V0H42.4335V2.629H42.4446ZM42.4446 11C42.4446 14.938 39.2257 18.128 35.2521 18.128C31.2784 18.128 28.0596 14.938 28.0596 11C28.0596 7.062 31.2784 3.872 35.2521 3.872C39.2257 3.883 42.4335 7.073 42.4446 11Z" fill="#3CCBDA"/>
<path d="M18.292 22C18.292 25.938 15.0732 29.128 11.0995 29.128C7.1259 29.128 3.90703 25.938 3.90703 22V21.351H0V22C0 28.072 4.97259 33 11.0995 33C17.2265 33 22.1991 28.072 22.1991 22V21.351H18.292V22Z" fill="#3CCBDA"/>
<path d="M10.4558 0V0.022C4.31772 0.374 -0.366278 5.577 -0.011093 11.649C0.344092 17.721 5.59417 22.363 11.7211 22.011C17.848 21.659 22.532 16.456 22.1769 10.384C22.0326 7.986 21.1113 5.698 19.5463 3.872H22.1991V0H10.4558ZM11.0995 3.872C15.0732 3.872 18.292 7.062 18.292 11C18.292 14.938 15.0732 18.128 11.0995 18.128C7.1259 18.128 3.90704 14.938 3.90704 11C3.91814 7.073 7.137 3.883 11.0995 3.872Z" fill="#3CCBDA"/>
<path d="M124.681 11C122.05 11 119.497 11.935 117.488 13.629V11H113.581V33H117.488V22C117.488 18.062 120.707 14.872 124.681 14.872C128.655 14.872 131.873 18.062 131.873 22V33H135.78V21.351H135.758C135.414 15.543 130.564 11.011 124.681 11Z" fill="#DC4406"/>
<path d="M156.026 13.629C151.364 9.69101 144.349 10.241 140.376 14.861C136.402 19.481 136.957 26.433 141.619 30.371C145.77 33.88 151.875 33.88 156.015 30.371V33H159.933V3.23401H156.026V13.629ZM156.026 22C156.026 25.938 152.807 29.128 148.834 29.128C144.86 29.128 141.641 25.938 141.641 22C141.641 18.062 144.86 14.872 148.834 14.872C148.834 14.872 148.834 14.872 148.845 14.872C152.807 14.883 156.026 18.073 156.026 22Z" fill="#DC4406"/>
<path d="M105.756 21.351V22C105.756 25.938 102.537 29.128 98.5637 29.128C94.5901 29.128 91.3713 25.938 91.3713 22V11H87.4642V22.649H87.4864C87.8638 28.71 93.125 33.33 99.2408 32.956C104.835 32.615 109.308 28.193 109.641 22.649H109.663V11H105.756V21.351V21.351Z" fill="#DC4406"/>
<path d="M174.951 11C172.32 11 169.767 11.935 167.758 13.629V11H163.851V33H167.758V22C167.758 18.073 170.977 14.883 174.951 14.872H175.606V11H174.951Z" fill="#DC4406"/>
<path d="M85.5218 0C80.3384 0.011 75.8542 3.553 74.6776 8.547C74.5 9.339 74.4112 10.153 74.4223 10.978V33H78.3293V14.872H83.5794V11H78.3182L78.3626 10.362C78.7067 6.699 81.8035 3.883 85.5218 3.883H86.1656V0H85.5218Z" fill="#DC4406"/>
<path d="M177.914 3.23401V3.57501H176.949V6.06101H176.56V3.57501H175.594V3.23401H177.914Z" fill="#DC4406"/>
<path d="M178.258 3.23401H178.813L179.635 5.62101L180.445 3.23401H181V6.06101H180.634V4.38901C180.634 4.33401 180.634 4.23501 180.634 4.10301C180.634 3.97101 180.634 3.82801 180.634 3.67401L179.823 6.06101H179.446L178.625 3.67401V3.76201C178.625 3.82801 178.625 3.93801 178.636 4.08101C178.636 4.22401 178.636 4.32301 178.636 4.38901V6.06101H178.27V3.23401H178.258Z" fill="#DC4406"/>
</g>
<defs>
<clipPath id="clip0_1369_7937">
<rect width="181" height="33" fill="white"/>
</clipPath>
</defs>
</svg>
