<svg xmlns="http://www.w3.org/2000/svg" version="1.1" xmlns:xlink="http://www.w3.org/1999/xlink" xmlns:svgjs="http://svgjs.dev/svgjs" viewBox="0 0 12.615523694178666 3.8344962835378"><g transform="matrix(1,0,0,1,3.446279961261778,0.6221065402063999)"><g><path d=" M 0.082763671875 0.029296875 L 0.55810546875 0.029296875 L 0.55810546875 0.230712890625 L 0.44091796875 0.230712890625 L 0.44091796875 0.93896484375 L 0.6826171875 0.93896484375 Q 0.692138671875 0.93896484375 0.7012939453125 0.9334716796875 Q 0.71044921875 0.927978515625 0.7174072265625 0.919189453125 Q 0.724365234375 0.910400390625 0.728759765625 0.900146484375 Q 0.733154296875 0.889892578125 0.733154296875 0.88037109375 L 0.733154296875 0.731689453125 L 0.970458984375 0.731689453125 L 0.970458984375 1.1396484375 L 0.082763671875 1.1396484375 L 0.082763671875 0.93896484375 L 0.19775390625 0.93896484375 L 0.19775390625 0.230712890625 L 0.082763671875 0.230712890625 L 0.082763671875 0.029296875 M 1.248779296875 0.807861328125 L 1.2509765625 0.83056640625 Q 1.259033203125 0.863525390625 1.2784423828125 0.888427734375 Q 1.2978515625 0.913330078125 1.32421875 0.93017578125 Q 1.3505859375 0.947021484375 1.3828125 0.9554443359375 Q 1.4150390625 0.9638671875 1.447998046875 0.9638671875 Q 1.48095703125 0.9638671875 1.5106201171875 0.9598388671875 Q 1.540283203125 0.955810546875 1.568115234375 0.9488525390625 Q 1.595947265625 0.94189453125 1.622314453125 0.9327392578125 Q 1.648681640625 0.923583984375 1.67578125 0.913330078125 L 1.75634765625 1.0634765625 Q 1.714599609375 1.089111328125 1.6798095703125 1.1070556640625 Q 1.64501953125 1.125 1.60986328125 1.13671875 Q 1.57470703125 1.1484375 1.53515625 1.1539306640625 Q 1.49560546875 1.159423828125 1.44287109375 1.159423828125 Q 1.343994140625 1.159423828125 1.26708984375 1.1268310546875 Q 1.190185546875 1.09423828125 1.1378173828125 1.03857421875 Q 1.08544921875 0.98291015625 1.0579833984375 0.908203125 Q 1.030517578125 0.83349609375 1.030517578125 0.75 Q 1.030517578125 0.66650390625 1.0594482421875 0.59326171875 Q 1.08837890625 0.52001953125 1.14111328125 0.4654541015625 Q 1.19384765625 0.410888671875 1.26708984375 0.37939453125 Q 1.34033203125 0.347900390625 1.4296875 0.347900390625 Q 1.51904296875 0.347900390625 1.5882568359375 0.3775634765625 Q 1.657470703125 0.4072265625 1.705078125 0.4595947265625 Q 1.752685546875 0.511962890625 1.7783203125 0.5826416015625 Q 1.803955078125 0.6533203125 1.80615234375 0.734619140625 Q 1.808349609375 0.7529296875 1.8087158203125 0.7708740234375 Q 1.80908203125 0.788818359375 1.8076171875 0.807861328125 L 1.248779296875 0.807861328125 M 1.423828125 0.531005859375 Q 1.3828125 0.531005859375 1.3538818359375 0.5408935546875 Q 1.324951171875 0.55078125 1.30517578125 0.5679931640625 Q 1.285400390625 0.585205078125 1.273681640625 0.607177734375 Q 1.261962890625 0.629150390625 1.25537109375 0.6533203125 L 1.572509765625 0.6533203125 Q 1.5673828125 0.62841796875 1.557861328125 0.6064453125 Q 1.54833984375 0.58447265625 1.531494140625 0.567626953125 Q 1.5146484375 0.55078125 1.4886474609375 0.5408935546875 Q 1.462646484375 0.531005859375 1.423828125 0.531005859375 M 2.394287109375 1.0986328125 Q 2.36865234375 1.11474609375 2.347412109375 1.1260986328125 Q 2.326171875 1.137451171875 2.304931640625 1.1444091796875 Q 2.28369140625 1.1513671875 2.260986328125 1.1546630859375 Q 2.23828125 1.157958984375 2.211181640625 1.157958984375 Q 2.14306640625 1.157958984375 2.0892333984375 1.1392822265625 Q 2.035400390625 1.12060546875 1.9984130859375 1.0880126953125 Q 1.96142578125 1.055419921875 1.941650390625 1.0111083984375 Q 1.921875 0.966796875 1.921875 0.914794921875 Q 1.921875 0.862060546875 1.9420166015625 0.8173828125 Q 1.962158203125 0.772705078125 2.000244140625 0.7408447265625 Q 2.038330078125 0.708984375 2.0936279296875 0.6910400390625 Q 2.14892578125 0.673095703125 2.219970703125 0.673095703125 Q 2.27197265625 0.673095703125 2.3148193359375 0.6785888671875 Q 2.357666015625 0.68408203125 2.394287109375 0.692138671875 L 2.394287109375 0.668701171875 Q 2.394287109375 0.64013671875 2.38330078125 0.6192626953125 Q 2.372314453125 0.598388671875 2.3525390625 0.5848388671875 Q 2.332763671875 0.5712890625 2.304931640625 0.5650634765625 Q 2.277099609375 0.558837890625 2.244140625 0.558837890625 Q 2.17529296875 0.558837890625 2.1229248046875 0.5723876953125 Q 2.070556640625 0.5859375 2.022216796875 0.611572265625 L 1.951904296875 0.469482421875 Q 2.026611328125 0.418212890625 2.1082763671875 0.39111328125 Q 2.18994140625 0.364013671875 2.281494140625 0.364013671875 Q 2.3525390625 0.364013671875 2.4129638671875 0.3797607421875 Q 2.473388671875 0.3955078125 2.5166015625 0.4310302734375 Q 2.559814453125 0.466552734375 2.5843505859375 0.523681640625 Q 2.60888671875 0.580810546875 2.60888671875 0.662841796875 L 2.60888671875 0.93896484375 L 2.710693359375 0.93896484375 L 2.710693359375 1.1396484375 L 2.394287109375 1.1396484375 L 2.394287109375 1.0986328125 M 2.227294921875 0.985107421875 Q 2.279296875 0.985107421875 2.32177734375 0.96826171875 Q 2.3642578125 0.951416015625 2.394287109375 0.92724609375 L 2.394287109375 0.83056640625 L 2.218505859375 0.83056640625 Q 2.20166015625 0.83056640625 2.185546875 0.835693359375 Q 2.16943359375 0.8408203125 2.1566162109375 0.850341796875 Q 2.143798828125 0.85986328125 2.1361083984375 0.873779296875 Q 2.12841796875 0.8876953125 2.12841796875 0.906005859375 Q 2.12841796875 0.939697265625 2.1529541015625 0.96240234375 Q 2.177490234375 0.985107421875 2.227294921875 0.985107421875 M 3.56103515625 0.656982421875 L 3.355224609375 0.656982421875 L 3.355224609375 0.57861328125 Q 3.3251953125 0.57861328125 3.30029296875 0.5826416015625 Q 3.275390625 0.586669921875 3.2567138671875 0.59619140625 Q 3.238037109375 0.605712890625 3.2252197265625 0.62255859375 Q 3.21240234375 0.639404296875 3.207275390625 0.664306640625 L 3.207275390625 0.93896484375 L 3.36181640625 0.93896484375 L 3.36181640625 1.1396484375 L 2.86669921875 1.1396484375 L 2.86669921875 0.93896484375 L 2.980224609375 0.93896484375 L 2.980224609375 0.58154296875 L 2.8681640625 0.58154296875 L 2.8681640625 0.380859375 L 3.205810546875 0.380859375 L 3.205810546875 0.434326171875 Q 3.238037109375 0.40869140625 3.2783203125 0.394775390625 Q 3.318603515625 0.380859375 3.3662109375 0.380859375 Q 3.41455078125 0.380859375 3.4658203125 0.381591796875 Q 3.51708984375 0.38232421875 3.56103515625 0.38232421875 L 3.56103515625 0.656982421875 M 4.31689453125 0.703125 Q 4.31689453125 0.639404296875 4.283203125 0.6031494140625 Q 4.24951171875 0.56689453125 4.19384765625 0.56689453125 Q 4.15576171875 0.56689453125 4.116943359375 0.583740234375 Q 4.078125 0.6005859375 4.04150390625 0.646728515625 L 4.04150390625 0.93896484375 L 4.16455078125 0.93896484375 L 4.16455078125 1.1396484375 L 3.69287109375 1.1396484375 L 3.69287109375 0.93896484375 L 3.80419921875 0.93896484375 L 3.80419921875 0.58154296875 L 3.6943359375 0.58154296875 L 3.6943359375 0.380859375 L 4.0400390625 0.380859375 L 4.0400390625 0.447509765625 Q 4.087646484375 0.41015625 4.1466064453125 0.3885498046875 Q 4.20556640625 0.366943359375 4.270751953125 0.366943359375 Q 4.40771484375 0.366943359375 4.481689453125 0.4434814453125 Q 4.5556640625 0.52001953125 4.5556640625 0.667236328125 L 4.5556640625 0.93896484375 L 4.663330078125 0.93896484375 L 4.663330078125 1.1396484375 L 4.31689453125 1.1396484375 L 4.31689453125 0.703125 M 5.048583984375 0.380859375 L 5.44482421875 0.380859375 L 5.44482421875 0.58154296875 L 5.359130859375 0.58154296875 L 5.439697265625 0.851806640625 L 5.595703125 0.380859375 L 5.810302734375 0.380859375 L 5.9677734375 0.8759765625 L 6.064453125 0.58154296875 L 5.983154296875 0.58154296875 L 5.983154296875 0.380859375 L 6.37939453125 0.380859375 L 6.37939453125 0.58154296875 L 6.277587890625 0.58154296875 L 6.07470703125 1.142578125 L 5.855712890625 1.142578125 L 5.69677734375 0.658447265625 L 5.534912109375 1.142578125 L 5.32177734375 1.142578125 L 5.133544921875 0.58154296875 L 5.048583984375 0.58154296875 L 5.048583984375 0.380859375 M 6.474609375 0.380859375 L 6.815185546875 0.380859375 L 6.815185546875 0.93896484375 L 6.920654296875 0.93896484375 L 6.920654296875 1.1396484375 L 6.474609375 1.1396484375 L 6.474609375 0.93896484375 L 6.5888671875 0.93896484375 L 6.5888671875 0.58154296875 L 6.474609375 0.58154296875 L 6.474609375 0.380859375 M 6.5771484375 0.13623046875 Q 6.5771484375 0.109130859375 6.5870361328125 0.0853271484375 Q 6.596923828125 0.0615234375 6.614501953125 0.0439453125 Q 6.632080078125 0.0263671875 6.6558837890625 0.01611328125 Q 6.6796875 0.005859375 6.70751953125 0.005859375 Q 6.73388671875 0.005859375 6.75732421875 0.01611328125 Q 6.78076171875 0.0263671875 6.79833984375 0.0439453125 Q 6.81591796875 0.0615234375 6.826171875 0.0853271484375 Q 6.83642578125 0.109130859375 6.83642578125 0.13623046875 Q 6.83642578125 0.163330078125 6.826171875 0.1871337890625 Q 6.81591796875 0.2109375 6.79833984375 0.228515625 Q 6.78076171875 0.24609375 6.75732421875 0.25634765625 Q 6.73388671875 0.2666015625 6.70751953125 0.2666015625 Q 6.6796875 0.2666015625 6.6558837890625 0.25634765625 Q 6.632080078125 0.24609375 6.614501953125 0.228515625 Q 6.596923828125 0.2109375 6.5870361328125 0.1871337890625 Q 6.5771484375 0.163330078125 6.5771484375 0.13623046875 M 7.346923828125 0.380859375 L 7.49853515625 0.380859375 L 7.49853515625 0.57275390625 L 7.345458984375 0.57275390625 L 7.343994140625 0.8935546875 Q 7.343994140625 0.92138671875 7.348388671875 0.9385986328125 Q 7.352783203125 0.955810546875 7.3612060546875 0.966064453125 Q 7.36962890625 0.976318359375 7.38134765625 0.97998046875 Q 7.39306640625 0.983642578125 7.408447265625 0.983642578125 Q 7.436279296875 0.983642578125 7.45751953125 0.9781494140625 Q 7.478759765625 0.97265625 7.5 0.96533203125 L 7.531494140625 1.106689453125 Q 7.494140625 1.130126953125 7.4483642578125 1.14404296875 Q 7.402587890625 1.157958984375 7.339599609375 1.157958984375 Q 7.294921875 1.157958984375 7.2542724609375 1.142578125 Q 7.213623046875 1.127197265625 7.182861328125 1.0960693359375 Q 7.152099609375 1.06494140625 7.1337890625 1.01806640625 Q 7.115478515625 0.97119140625 7.1162109375 0.908935546875 L 7.118408203125 0.57275390625 L 7.00927734375 0.57275390625 L 7.00927734375 0.380859375 L 7.119140625 0.380859375 L 7.12060546875 0.19921875 L 7.348388671875 0.0908203125 L 7.346923828125 0.380859375 M 7.636962890625 0 L 7.97900390625 0 L 7.97900390625 0.451171875 Q 8.022216796875 0.41162109375 8.0738525390625 0.3892822265625 Q 8.12548828125 0.366943359375 8.187744140625 0.366943359375 Q 8.32470703125 0.366943359375 8.397216796875 0.4434814453125 Q 8.4697265625 0.52001953125 8.4697265625 0.667236328125 L 8.4697265625 0.93896484375 L 8.5810546875 0.93896484375 L 8.5810546875 1.1396484375 L 8.241943359375 1.1396484375 L 8.241943359375 0.718505859375 Q 8.241943359375 0.65478515625 8.21044921875 0.6181640625 Q 8.178955078125 0.58154296875 8.129150390625 0.58154296875 Q 8.09619140625 0.58154296875 8.057373046875 0.599853515625 Q 8.0185546875 0.6181640625 7.97900390625 0.6533203125 L 7.97900390625 0.93896484375 L 8.09033203125 0.93896484375 L 8.09033203125 1.1396484375 L 7.636962890625 1.1396484375 L 7.636962890625 0.93896484375 L 7.754150390625 0.93896484375 L 7.754150390625 0.20068359375 L 7.636962890625 0.20068359375 L 7.636962890625 0 M 0.81005859375 1.8175781249999998 Q 0.76904296875 1.7589843749999998 0.736083984375 1.7344482421874998 Q 0.703125 1.7099121093749998 0.6650390625 1.6992919921874998 Q 0.626953125 1.6886718749999998 0.585205078125 1.6886718749999998 Q 0.523681640625 1.6886718749999998 0.470947265625 1.7161376953124998 Q 0.418212890625 1.7436035156249998 0.3797607421875 1.7908447265624998 Q 0.34130859375 1.8380859374999998 0.3193359375 1.9007080078124998 Q 0.29736328125 1.9633300781249998 0.29736328125 2.033642578125 Q 0.29736328125 2.1046875 0.3189697265625 2.1673095703125 Q 0.340576171875 2.229931640625 0.378662109375 2.276806640625 Q 0.416748046875 2.323681640625 0.469482421875 2.3511474609375 Q 0.522216796875 2.37861328125 0.585205078125 2.37861328125 Q 0.629150390625 2.37861328125 0.667236328125 2.3643310546875 Q 0.705322265625 2.350048828125 0.7364501953125 2.326611328125 Q 0.767578125 2.303173828125 0.791015625 2.2727783203125 Q 0.814453125 2.2423828125 0.82763671875 2.209423828125 L 1.0634765625 2.275341796875 Q 1.040771484375 2.347119140625 0.996826171875 2.4082763671875 Q 0.952880859375 2.46943359375 0.8909912109375 2.514111328125 Q 0.8291015625 2.5587890625 0.7518310546875 2.584423828125 Q 0.674560546875 2.61005859375 0.585205078125 2.61005859375 Q 0.509765625 2.61005859375 0.44091796875 2.58955078125 Q 0.3720703125 2.56904296875 0.3123779296875 2.531689453125 Q 0.252685546875 2.4943359375 0.2039794921875 2.4416015625 Q 0.1552734375 2.3888671875 0.120849609375 2.3247802734375 Q 0.08642578125 2.260693359375 0.0673828125 2.1870849609375 Q 0.04833984375 2.1134765625 0.04833984375 2.033642578125 Q 0.04833984375 1.9142578124999998 0.090087890625 1.8098876953124998 Q 0.1318359375 1.7055175781249998 0.204345703125 1.6275146484374998 Q 0.27685546875 1.5495117187499998 0.3746337890625 1.5044677734374998 Q 0.472412109375 1.4594238281249998 0.585205078125 1.4594238281249998 Q 0.67529296875 1.4594238281249998 0.73681640625 1.4817626953124998 Q 0.79833984375 1.5041015624999998 0.872314453125 1.5700195312499998 L 1.036376953125 1.5700195312499998 L 1.036376953125 1.8175781249999998 L 0.81005859375 1.8175781249999998 M 1.1982421875 2.207958984375 Q 1.1982421875 2.1251953125 1.228271484375 2.052685546875 Q 1.25830078125 1.9801757812499998 1.311767578125 1.9259765624999998 Q 1.365234375 1.8717773437499998 1.439208984375 1.8402832031249998 Q 1.51318359375 1.8087890624999998 1.601806640625 1.8087890624999998 Q 1.6904296875 1.8087890624999998 1.7647705078125 1.8402832031249998 Q 1.839111328125 1.8717773437499998 1.892578125 1.9259765624999998 Q 1.946044921875 1.9801757812499998 1.9757080078125 2.052685546875 Q 2.00537109375 2.1251953125 2.00537109375 2.207958984375 Q 2.00537109375 2.29072265625 1.9764404296875 2.3635986328125 Q 1.947509765625 2.436474609375 1.8944091796875 2.4910400390625 Q 1.84130859375 2.54560546875 1.7669677734375 2.577099609375 Q 1.692626953125 2.60859375 1.601806640625 2.60859375 Q 1.51025390625 2.60859375 1.4359130859375 2.577099609375 Q 1.361572265625 2.54560546875 1.308837890625 2.49140625 Q 1.256103515625 2.43720703125 1.2271728515625 2.3643310546875 Q 1.1982421875 2.291455078125 1.1982421875 2.207958984375 M 1.417236328125 2.207958984375 Q 1.417236328125 2.251171875 1.431884765625 2.2874267578125 Q 1.446533203125 2.323681640625 1.4718017578125 2.350048828125 Q 1.4970703125 2.376416015625 1.5303955078125 2.391064453125 Q 1.563720703125 2.405712890625 1.601806640625 2.405712890625 Q 1.640625 2.405712890625 1.6739501953125 2.3914306640625 Q 1.707275390625 2.3771484375 1.7318115234375 2.35078125 Q 1.75634765625 2.3244140625 1.770263671875 2.2881591796875 Q 1.7841796875 2.251904296875 1.7841796875 2.207958984375 Q 1.7841796875 2.162548828125 1.770263671875 2.125927734375 Q 1.75634765625 2.089306640625 1.7318115234375 2.063671875 Q 1.707275390625 2.038037109375 1.6739501953125 2.0244873046875 Q 1.640625 2.0109375 1.601806640625 2.011669921875 Q 1.563720703125 2.0109375 1.5303955078125 2.0244873046875 Q 1.4970703125 2.038037109375 1.4718017578125 2.063671875 Q 1.446533203125 2.089306640625 1.431884765625 2.125927734375 Q 1.417236328125 2.162548828125 1.417236328125 2.207958984375 M 2.5960693359375 2.02998046875 Q 2.584716796875 2.0138671875 2.562744140625 2.0017822265625 Q 2.540771484375 1.9896972656249998 2.5089111328125 1.9823730468749998 Q 2.47705078125 1.9750488281249998 2.436767578125 1.9750488281249998 Q 2.42138671875 1.9750488281249998 2.40380859375 1.9776123046874998 Q 2.38623046875 1.9801757812499998 2.3712158203125 1.9867675781249998 Q 2.356201171875 1.9933593749999998 2.3463134765625 2.0047119140625 Q 2.33642578125 2.016064453125 2.33642578125 2.033642578125 Q 2.33642578125 2.042431640625 2.3389892578125 2.05048828125 Q 2.341552734375 2.058544921875 2.348876953125 2.065869140625 Q 2.356201171875 2.073193359375 2.3690185546875 2.0794189453125 Q 2.3818359375 2.08564453125 2.40234375 2.089306640625 L 2.5400390625 2.11640625 Q 2.61474609375 2.1310546875 2.665283203125 2.15302734375 Q 2.7158203125 2.175 2.74658203125 2.204296875 Q 2.77734375 2.23359375 2.7908935546875 2.269482421875 Q 2.804443359375 2.30537109375 2.804443359375 2.347119140625 Q 2.804443359375 2.4123046875 2.7740478515625 2.461376953125 Q 2.74365234375 2.51044921875 2.6942138671875 2.5430419921875 Q 2.644775390625 2.575634765625 2.5828857421875 2.5921142578125 Q 2.52099609375 2.60859375 2.4580078125 2.60859375 Q 2.4169921875 2.60859375 2.3836669921875 2.603466796875 Q 2.350341796875 2.59833984375 2.3236083984375 2.58955078125 Q 2.296875 2.58076171875 2.2760009765625 2.5686767578125 Q 2.255126953125 2.556591796875 2.237548828125 2.541943359375 L 2.10498046875 2.541943359375 L 2.10498046875 2.338330078125 L 2.312255859375 2.338330078125 L 2.312255859375 2.342724609375 Q 2.31298828125 2.36396484375 2.325439453125 2.3797119140625 Q 2.337890625 2.395458984375 2.3580322265625 2.4064453125 Q 2.378173828125 2.417431640625 2.40380859375 2.4229248046875 Q 2.429443359375 2.42841796875 2.4580078125 2.42841796875 Q 2.52392578125 2.42841796875 2.553955078125 2.4112060546875 Q 2.583984375 2.393994140625 2.583984375 2.36689453125 Q 2.583984375 2.345654296875 2.5693359375 2.3306396484375 Q 2.5546875 2.315625 2.517333984375 2.3068359375 L 2.376708984375 2.276806640625 Q 2.244140625 2.251171875 2.1767578125 2.1914794921875 Q 2.109375 2.131787109375 2.109375 2.038037109375 Q 2.109375 1.9831054687499998 2.135009765625 1.9380615234374998 Q 2.16064453125 1.8930175781249998 2.20458984375 1.8611572265624998 Q 2.24853515625 1.8292968749999998 2.3074951171875 1.8117187499999998 Q 2.366455078125 1.7941406249999998 2.433837890625 1.7941406249999998 Q 2.47998046875 1.7941406249999998 2.515869140625 1.7996337890624998 Q 2.5517578125 1.8051269531249998 2.580322265625 1.8139160156249998 Q 2.60888671875 1.8227050781249998 2.6304931640625 1.8347900390624998 Q 2.652099609375 1.8468749999999998 2.6689453125 1.8600585937499998 L 2.79638671875 1.8600585937499998 L 2.79638671875 2.063671875 L 2.607421875 2.063671875 Q 2.607421875 2.04609375 2.5960693359375 2.02998046875 M 2.939208984375 1.8314941406249998 L 3.286376953125 1.8314941406249998 L 3.286376953125 1.8974121093749998 Q 3.333251953125 1.8600585937499998 3.391845703125 1.8380859374999998 Q 3.450439453125 1.8161132812499998 3.5126953125 1.8161132812499998 Q 3.59912109375 1.8161132812499998 3.6610107421875 1.8465087890624998 Q 3.722900390625 1.8769042968749998 3.758056640625 1.9391601562499998 Q 3.7822265625 1.9120605468749998 3.8126220703125 1.8897216796874998 Q 3.843017578125 1.8673828124999998 3.87744140625 1.8509033203124998 Q 3.911865234375 1.8344238281249998 3.9495849609375 1.8252685546874998 Q 3.9873046875 1.8161132812499998 4.02685546875 1.8161132812499998 Q 4.166015625 1.8161132812499998 4.24072265625 1.8930175781249998 Q 4.3154296875 1.9699218749999998 4.3154296875 2.11787109375 L 4.3154296875 2.389599609375 L 4.423095703125 2.389599609375 L 4.423095703125 2.590283203125 L 4.07666015625 2.590283203125 L 4.07666015625 2.155224609375 Q 4.07666015625 2.090771484375 4.0433349609375 2.054150390625 Q 4.010009765625 2.017529296875 3.95068359375 2.017529296875 Q 3.90966796875 2.017529296875 3.8734130859375 2.0369384765625 Q 3.837158203125 2.05634765625 3.80126953125 2.103955078125 Q 3.802001953125 2.11201171875 3.802001953125 2.1204345703125 Q 3.802001953125 2.128857421875 3.802001953125 2.137646484375 L 3.802001953125 2.389599609375 L 3.911865234375 2.389599609375 L 3.911865234375 2.590283203125 L 3.5654296875 2.590283203125 L 3.5654296875 2.153759765625 Q 3.5654296875 2.122998046875 3.555908203125 2.098095703125 Q 3.54638671875 2.073193359375 3.529541015625 2.055615234375 Q 3.5126953125 2.038037109375 3.4896240234375 2.0281494140625 Q 3.466552734375 2.01826171875 3.438720703125 2.017529296875 Q 3.402099609375 2.016796875 3.3629150390625 2.033642578125 Q 3.32373046875 2.05048828125 3.287841796875 2.0958984375 L 3.287841796875 2.389599609375 L 3.409423828125 2.389599609375 L 3.409423828125 2.590283203125 L 2.937744140625 2.590283203125 L 2.937744140625 2.389599609375 L 3.050537109375 2.389599609375 L 3.050537109375 2.032177734375 L 2.939208984375 2.032177734375 L 2.939208984375 1.8314941406249998 M 4.518310546875 2.207958984375 Q 4.518310546875 2.1251953125 4.54833984375 2.052685546875 Q 4.578369140625 1.9801757812499998 4.6318359375 1.9259765624999998 Q 4.685302734375 1.8717773437499998 4.75927734375 1.8402832031249998 Q 4.833251953125 1.8087890624999998 4.921875 1.8087890624999998 Q 5.010498046875 1.8087890624999998 5.0848388671875 1.8402832031249998 Q 5.1591796875 1.8717773437499998 5.212646484375 1.9259765624999998 Q 5.26611328125 1.9801757812499998 5.2957763671875 2.052685546875 Q 5.325439453125 2.1251953125 5.325439453125 2.207958984375 Q 5.325439453125 2.29072265625 5.2965087890625 2.3635986328125 Q 5.267578125 2.436474609375 5.2144775390625 2.4910400390625 Q 5.161376953125 2.54560546875 5.0870361328125 2.577099609375 Q 5.0126953125 2.60859375 4.921875 2.60859375 Q 4.830322265625 2.60859375 4.7559814453125 2.577099609375 Q 4.681640625 2.54560546875 4.62890625 2.49140625 Q 4.576171875 2.43720703125 4.5472412109375 2.3643310546875 Q 4.518310546875 2.291455078125 4.518310546875 2.207958984375 M 4.7373046875 2.207958984375 Q 4.7373046875 2.251171875 4.751953125 2.2874267578125 Q 4.7666015625 2.323681640625 4.7918701171875 2.350048828125 Q 4.817138671875 2.376416015625 4.8504638671875 2.391064453125 Q 4.8837890625 2.405712890625 4.921875 2.405712890625 Q 4.960693359375 2.405712890625 4.9940185546875 2.3914306640625 Q 5.02734375 2.3771484375 5.0518798828125 2.35078125 Q 5.076416015625 2.3244140625 5.09033203125 2.2881591796875 Q 5.104248046875 2.251904296875 5.104248046875 2.207958984375 Q 5.104248046875 2.162548828125 5.09033203125 2.125927734375 Q 5.076416015625 2.089306640625 5.0518798828125 2.063671875 Q 5.02734375 2.038037109375 4.9940185546875 2.0244873046875 Q 4.960693359375 2.0109375 4.921875 2.011669921875 Q 4.8837890625 2.0109375 4.8504638671875 2.0244873046875 Q 4.817138671875 2.038037109375 4.7918701171875 2.063671875 Q 4.7666015625 2.089306640625 4.751953125 2.125927734375 Q 4.7373046875 2.162548828125 4.7373046875 2.207958984375 M 5.9161376953125 2.02998046875 Q 5.90478515625 2.0138671875 5.8828125 2.0017822265625 Q 5.86083984375 1.9896972656249998 5.8289794921875 1.9823730468749998 Q 5.797119140625 1.9750488281249998 5.7568359375 1.9750488281249998 Q 5.741455078125 1.9750488281249998 5.723876953125 1.9776123046874998 Q 5.706298828125 1.9801757812499998 5.6912841796875 1.9867675781249998 Q 5.67626953125 1.9933593749999998 5.6663818359375 2.0047119140625 Q 5.656494140625 2.016064453125 5.656494140625 2.033642578125 Q 5.656494140625 2.042431640625 5.6590576171875 2.05048828125 Q 5.66162109375 2.058544921875 5.6689453125 2.065869140625 Q 5.67626953125 2.073193359375 5.6890869140625 2.0794189453125 Q 5.701904296875 2.08564453125 5.722412109375 2.089306640625 L 5.860107421875 2.11640625 Q 5.934814453125 2.1310546875 5.9853515625 2.15302734375 Q 6.035888671875 2.175 6.066650390625 2.204296875 Q 6.097412109375 2.23359375 6.1109619140625 2.269482421875 Q 6.12451171875 2.30537109375 6.12451171875 2.347119140625 Q 6.12451171875 2.4123046875 6.0941162109375 2.461376953125 Q 6.063720703125 2.51044921875 6.0142822265625 2.5430419921875 Q 5.96484375 2.575634765625 5.9029541015625 2.5921142578125 Q 5.841064453125 2.60859375 5.778076171875 2.60859375 Q 5.737060546875 2.60859375 5.7037353515625 2.603466796875 Q 5.67041015625 2.59833984375 5.6436767578125 2.58955078125 Q 5.616943359375 2.58076171875 5.5960693359375 2.5686767578125 Q 5.5751953125 2.556591796875 5.5576171875 2.541943359375 L 5.425048828125 2.541943359375 L 5.425048828125 2.338330078125 L 5.63232421875 2.338330078125 L 5.63232421875 2.342724609375 Q 5.633056640625 2.36396484375 5.6455078125 2.3797119140625 Q 5.657958984375 2.395458984375 5.6781005859375 2.4064453125 Q 5.6982421875 2.417431640625 5.723876953125 2.4229248046875 Q 5.74951171875 2.42841796875 5.778076171875 2.42841796875 Q 5.843994140625 2.42841796875 5.8740234375 2.4112060546875 Q 5.904052734375 2.393994140625 5.904052734375 2.36689453125 Q 5.904052734375 2.345654296875 5.889404296875 2.3306396484375 Q 5.874755859375 2.315625 5.83740234375 2.3068359375 L 5.69677734375 2.276806640625 Q 5.564208984375 2.251171875 5.496826171875 2.1914794921875 Q 5.429443359375 2.131787109375 5.429443359375 2.038037109375 Q 5.429443359375 1.9831054687499998 5.455078125 1.9380615234374998 Q 5.480712890625 1.8930175781249998 5.524658203125 1.8611572265624998 Q 5.568603515625 1.8292968749999998 5.6275634765625 1.8117187499999998 Q 5.6865234375 1.7941406249999998 5.75390625 1.7941406249999998 Q 5.800048828125 1.7941406249999998 5.8359375 1.7996337890624998 Q 5.871826171875 1.8051269531249998 5.900390625 1.8139160156249998 Q 5.928955078125 1.8227050781249998 5.9505615234375 1.8347900390624998 Q 5.97216796875 1.8468749999999998 5.989013671875 1.8600585937499998 L 6.116455078125 1.8600585937499998 L 6.116455078125 2.063671875 L 5.927490234375 2.063671875 Q 5.927490234375 2.04609375 5.9161376953125 2.02998046875" fill="#212245" fill-rule="nonzero"></path></g><g></g><g clip-path="url(&quot;#SvgjsClipPath1001&quot;)"><g clip-path="url(&quot;#SvgjsClipPath100083dfb348-952f-4c46-bcac-fc2f168897e1&quot;)"><path d=" M -1.909754440540565 2.077960745190376 L -2.207653193149808 2.250065181488541 L -1.5089937868061578 2.653497572914511 L -1.2110950341969149 2.4813931366163464 L -1.2110950341969149 1.6487015560792997 L -1.5089937868061578 1.4765971197811345 L -1.5089937868061578 2.309511345125812 L -1.909754440540565 2.077960745190376 Z" fill="#212245" transform="matrix(1,0,0,1,0,0)" fill-rule="evenodd"></path></g><g clip-path="url(&quot;#SvgjsClipPath100083dfb348-952f-4c46-bcac-fc2f168897e1&quot;)"><path d=" M -1.0986594063436503 1.9169885492737224 L -1.0986594063436503 2.2609747770624224 L -0.3999999999999999 1.8577650304440823 L -0.3999999999999999 1.513556157847752 L -1.1211465319143032 1.0972103675792289 L -1.4190452845235462 1.2693148038773938 L -0.6978987526092428 1.685660594145917 L -1.0986594063436503 1.9169885492737224 Z" fill="#212245" transform="matrix(1,0,0,1,0,0)" fill-rule="evenodd"></path></g><g clip-path="url(&quot;#SvgjsClipPath100083dfb348-952f-4c46-bcac-fc2f168897e1&quot;)"><path d=" M -0.83259886122553 1.1341694056458465 L -0.534700108616287 1.3062738419440114 L -0.534700108616287 0.49918641428444066 L -0.83259886122553 0.327304622793906 L -1.5539680379474634 0.7436504130624294 L -1.5539680379474634 1.0878592856587592 L -0.8328215060331603 0.6715134953902359 L -0.83259886122553 1.1341694056458465 Z" fill="#212245" transform="matrix(1,0,0,1,0,0)" fill-rule="evenodd"></path></g><g clip-path="url(&quot;#SvgjsClipPath100083dfb348-952f-4c46-bcac-fc2f168897e1&quot;)"><path d=" M -1.377633350304324 0.512322457934624 L -1.0795119528874513 0.34021802163645914 L -1.7783940040387316 -0.06321436978951112 L -2.0762927566479745 0.1088900665086539 L -2.0762927566479745 0.9415816470457006 L -1.7783940040387316 1.1136860833438653 L -1.7783940040387316 0.2809945028068189 L -1.377633350304324 0.512322457934624 Z" fill="#212245" transform="matrix(1,0,0,1,0,0)" fill-rule="evenodd"></path></g><g clip-path="url(&quot;#SvgjsClipPath100083dfb348-952f-4c46-bcac-fc2f168897e1&quot;)"><path d=" M -2.1885057396936087 0.6732946538512777 L -2.1885057396936087 0.32930842606257793 L -2.887387790844889 0.7325181726809179 L -2.887387790844889 1.0767270452772482 L -2.1662412589305857 1.4930728355457714 L -1.868119861513713 1.3209683992476062 L -2.589266393428016 0.9046226089790831 L -2.1885057396936087 0.6732946538512777 Z" fill="#212245" transform="matrix(1,0,0,1,0,0)" fill-rule="evenodd"></path></g><g clip-path="url(&quot;#SvgjsClipPath100083dfb348-952f-4c46-bcac-fc2f168897e1&quot;)"><path d=" M -2.454788929619359 1.4561137974791536 L -2.752687682228602 1.2840093611809889 L -2.752687682228602 2.090874144032929 L -2.454788929619359 2.2629785803310947 L -1.7334197528974258 1.8466327900625705 L -1.7334197528974258 1.5024239174662408 L -2.454788929619359 1.9189923525423944 L -2.454788929619359 1.4561137974791536 Z" fill="#212245" transform="matrix(1,0,0,1,0,0)" fill-rule="evenodd"></path></g></g></g><defs><clipPath id="SvgjsClipPath1001"><path d=" M -2.887387790844889 -0.06321436978951112 h 2.487387790844889 v 2.716711942704022 h -2.487387790844889 Z"></path></clipPath><clipPath id="SvgjsClipPath100083dfb348-952f-4c46-bcac-fc2f168897e1"><path d=" M -2.887387790844889 -0.06321436978951112 L -0.3999999999999999 -0.06321436978951112 L -0.3999999999999999 2.653497572914511 L -2.887387790844889 2.653497572914511 Z"></path></clipPath></defs></svg>